<svg id="visual" viewBox="0 0 900 600" width="900" height="600" xmlns="http://www.w3.org/2000/svg" xmlns:xlink="http://www.w3.org/1999/xlink" version="1.1"><rect x="0" y="0" width="900" height="600" fill="#002233"></rect><path d="M0 474L21.5 458C43 442 86 410 128.8 410.5C171.7 411 214.3 444 257.2 441.2C300 438.3 343 399.7 385.8 383C428.7 366.3 471.3 371.7 514.2 383C557 394.3 600 411.7 642.8 422.2C685.7 432.7 728.3 436.3 771.2 430.7C814 425 857 410 878.5 402.5L900 395L900 601L878.5 601C857 601 814 601 771.2 601C728.3 601 685.7 601 642.8 601C600 601 557 601 514.2 601C471.3 601 428.7 601 385.8 601C343 601 300 601 257.2 601C214.3 601 171.7 601 128.8 601C86 601 43 601 21.5 601L0 601Z" fill="#ff5b00" stroke-linecap="round" stroke-linejoin="miter"></path></svg>